<svg xmlns="http://www.w3.org/2000/svg" xmlns:xlink="http://www.w3.org/1999/xlink" zoomAndPan="magnify" preserveAspectRatio="xMidYMid meet" version="1.0" viewBox="94.69 174.68 185.34 25.32"><defs><clipPath id="edfe50ed32"><path d="M 94.6875 175 L 143 175 L 143 200 L 94.6875 200 Z M 94.6875 175 " clip-rule="nonzero"/></clipPath><clipPath id="70e0ed83f5"><path d="M 209 174.675781 L 279.9375 174.675781 L 279.9375 199 L 209 199 Z M 209 174.675781 " clip-rule="nonzero"/></clipPath></defs><g clip-path="url(#edfe50ed32)"><path fill="#3b72b9" d="M 131.3125 175.324219 L 129.46875 175.242188 C 123.90625 175.242188 120.304688 178.195312 118.308594 181.625 L 113.464844 190.160156 C 112.183594 192.195312 110.464844 193.070312 108.144531 193.070312 C 104.824219 193.070312 102.101562 190.558594 102.101562 187.488281 C 102.101562 184.417969 104.835938 181.902344 108.136719 181.902344 C 110.097656 181.902344 111.539062 182.421875 112.699219 183.695312 L 116.261719 177.835938 C 115.066406 176.980469 113.765625 176.324219 112.367188 175.875 C 110.964844 175.425781 109.527344 175.203125 108.054688 175.203125 C 100.730469 175.203125 94.769531 180.664062 94.769531 187.445312 C 94.769531 193.148438 99.011719 197.933594 104.777344 199.273438 C 105.816406 199.511719 106.9375 199.671875 108.058594 199.671875 L 108.339844 199.671875 C 112.699219 199.589844 116.863281 198.199219 118.902344 194.53125 L 124.265625 184.917969 C 125.265625 183.363281 126.1875 182.6875 127.585938 182.246094 C 128.25 182.035156 128.929688 181.929688 129.628906 181.925781 C 132.945312 181.925781 135.667969 184.4375 135.667969 187.507812 C 135.667969 190.578125 132.949219 193.089844 129.628906 193.089844 C 126.90625 193.089844 125.222656 192.414062 123.605469 190.417969 L 120.167969 196.039062 C 122.566406 198.3125 125.96875 199.75 129.691406 199.75 C 137.015625 199.75 142.976562 194.285156 142.976562 187.503906 C 143.015625 181.203125 137.894531 176.023438 131.289062 175.300781 Z M 131.3125 175.324219 " fill-opacity="1" fill-rule="nonzero"/></g><path fill="#3b72b9" d="M 156.804688 199.011719 C 155.085938 199.011719 153.5625 198.8125 152.121094 198.375 C 150.679688 198.015625 149.519531 197.375 148.519531 196.460938 C 147.519531 195.542969 146.71875 194.464844 146.160156 193.109375 C 145.597656 191.753906 145.359375 190.121094 145.359375 188.246094 L 145.359375 175.722656 L 153.28125 175.722656 L 153.28125 188.203125 C 153.28125 189.640625 153.644531 190.640625 154.285156 191.273438 C 154.925781 191.90625 155.804688 192.269531 156.886719 192.269531 C 157.964844 192.269531 158.765625 191.992188 159.484375 191.351562 C 160.125 190.714844 160.488281 189.71875 160.488281 188.363281 L 160.488281 175.722656 L 168.410156 175.722656 L 168.410156 188.125 C 168.410156 190.117188 168.128906 191.753906 167.609375 193.109375 C 167.050781 194.460938 166.253906 195.621094 165.25 196.457031 C 164.25 197.375 163.007812 198.011719 161.648438 198.371094 C 160.128906 198.851562 158.527344 199.011719 156.804688 199.011719 Z M 156.804688 199.011719 " fill-opacity="1" fill-rule="evenodd"/><g clip-path="url(#70e0ed83f5)"><path fill="#3b72b9" d="M 234.804688 187.445312 C 234.804688 179.734375 230.199219 174.964844 222.195312 174.964844 C 214.632812 174.964844 209.390625 179.472656 209.390625 186.96875 C 209.390625 194.679688 215.074219 198.890625 222.714844 198.890625 C 227.960938 198.890625 233.160156 196.539062 234.441406 191.179688 L 226.597656 191.179688 C 225.679688 192.734375 224.4375 193.234375 222.714844 193.234375 C 219.277344 193.234375 217.59375 191.519531 217.59375 188.25 L 234.804688 188.25 Z M 217.796875 183.738281 C 218.355469 181.464844 220.316406 180.226562 222.675781 180.226562 C 224.835938 180.226562 226.917969 181.582031 227.28125 183.738281 Z M 271.863281 175.800781 L 271.863281 177.859375 C 270.140625 175.941406 267.339844 174.949219 264.742188 174.949219 C 257.894531 174.949219 253.214844 180.449219 253.214844 186.871094 C 253.214844 193.292969 257.980469 198.875 264.820312 198.875 C 267.542969 198.875 270.304688 197.875 271.746094 195.605469 L 271.824219 195.605469 L 271.824219 198.117188 L 280.03125 198.117188 L 280.03125 175.785156 Z M 266.820312 192.070312 C 263.5 192.070312 261.574219 189.917969 261.574219 187.007812 C 261.574219 184.296875 263.578125 181.941406 266.820312 181.941406 C 270.136719 181.941406 272.0625 184.214844 272.0625 187.007812 C 272.023438 189.878906 270.140625 192.070312 266.820312 192.070312 Z M 266.820312 192.070312 " fill-opacity="1" fill-rule="nonzero"/></g><path fill="#3b72b9" d="M 204.226562 181.582031 C 202.945312 180.945312 201.265625 180.507812 199.824219 180.507812 C 198.902344 180.507812 197.300781 180.867188 197.300781 182.0625 C 197.300781 183.617188 199.824219 183.777344 200.980469 184.054688 C 204.765625 184.773438 207.664062 186.566406 207.664062 190.757812 C 207.664062 196.757812 202.183594 199.171875 196.78125 199.171875 C 193.539062 199.171875 190.296875 198.253906 187.496094 196.539062 L 190.457031 190.917969 C 192.097656 192.074219 194.859375 193.191406 196.941406 193.191406 C 197.941406 193.191406 199.464844 192.753906 199.464844 191.476562 C 199.464844 189.761719 196.941406 189.683594 194.339844 188.964844 C 191.820312 188.328125 189.21875 187.050781 189.21875 182.964844 C 189.21875 177.464844 194.339844 175.03125 199.367188 175.03125 C 201.96875 175.03125 204.609375 175.390625 206.929688 176.464844 Z M 190.019531 175.441406 L 187.257812 175.441406 C 187.257812 175.441406 181.414062 176.71875 179.773438 179.429688 L 179.695312 179.429688 L 179.695312 175.800781 L 171.488281 175.800781 L 171.488281 198.292969 L 179.695312 198.292969 L 179.695312 189.28125 C 179.695312 185.410156 181.578125 182.5 186.179688 182.5 L 190.023438 175.441406 Z M 255.410156 175.441406 L 252.648438 175.441406 C 252.648438 175.441406 246.804688 176.71875 245.167969 179.429688 L 245.085938 179.429688 L 245.085938 175.800781 L 236.882812 175.800781 L 236.882812 198.292969 L 245.085938 198.292969 L 245.085938 189.28125 C 245.085938 185.410156 246.96875 182.5 251.570312 182.5 L 255.414062 175.441406 Z M 255.410156 175.441406 " fill-opacity="1" fill-rule="evenodd"/></svg>